<svg version="1.1" id="Layer_1" xmlns="http://www.w3.org/2000/svg" xmlns:xlink="http://www.w3.org/1999/xlink" x="0px" y="0px"
	 width="100%" viewBox="0 0 96 96" enable-background="new 0 0 96 96" xml:space="preserve">
<path fill="#000000" opacity="1.000000" stroke="none" 
	d="
M39.877853,23.959057 
	C41.233810,20.993816 41.380390,17.849916 44.752613,14.544803 
	C47.353657,27.966230 54.707829,36.061451 68.431496,38.310078 
	C55.586224,41.762394 46.522766,48.038406 45.016228,62.217220 
	C40.062801,57.073814 40.414356,50.495205 36.175468,46.395493 
	C31.826651,42.189465 25.451851,42.141506 19.956512,38.430496 
	C27.289745,34.314804 37.201336,34.156326 39.877853,23.959057 
z"/>
<path fill="#000000" opacity="1.000000" stroke="none" 
	d="
M30.534664,80.891228 
	C29.159344,75.343376 24.745930,73.320946 20.059036,70.910164 
	C25.641920,68.530243 30.041998,65.542435 31.361025,59.092007 
	C34.595165,64.133430 36.921566,69.551376 43.928932,70.777214 
	C37.996014,72.998947 34.578758,76.635109 32.597240,81.795631 
	C32.269096,82.650223 31.165140,81.996246 30.534664,80.891228 
z"/>
<path fill="#000000" opacity="1.000000" stroke="none" 
	d="
M74.236679,15.208035 
	C76.894691,17.640804 78.367599,21.195633 82.827202,22.167479 
	C79.662262,24.834740 75.900307,26.060591 75.257401,31.769306 
	C72.840401,26.836245 70.216393,24.366802 66.065132,22.437346 
	C70.334183,21.065388 73.047684,19.087326 74.236679,15.208035 
z"/>
<path fill="#000000" opacity="1.000000" stroke="none" 
	d="
M30.607845,21.193497 
	C31.457838,21.682161 32.014050,22.000307 32.994610,22.561172 
	C29.406803,24.320854 26.927895,26.787605 24.927170,30.645481 
	C23.034052,26.709536 20.435047,24.360313 16.457121,22.541800 
	C20.560625,21.009144 23.097551,18.853767 24.622849,15.227479 
	C26.893724,17.228241 27.661791,20.115883 30.607845,21.193497 
z"/>
<path fill="#000000" opacity="1.000000" stroke="none" 
	d="
M60.769844,20.802088 
	C61.525913,23.696852 58.017582,23.195631 57.844856,26.106205 
	C56.371929,23.958054 55.654415,22.293045 53.401539,21.650188 
	C55.293579,20.480440 56.759090,19.485128 57.151871,17.323400 
	C58.726490,18.240934 58.519794,20.610773 60.769844,20.802088 
z"/>
</svg>